<svg width="228" height="228" viewBox="0 0 228 228" fill="none" xmlns="http://www.w3.org/2000/svg">
  <rect width="228" height="228" fill="#F7F7F7"/>
  <path d="M12.928 72V37.92H36.304V46.08H22.288V51.744H33.712V59.328H22.288V72H12.928ZM39.9749 72V37.92H55.6229C57.2869 37.92 58.8229 38.256 60.2309 38.928C61.6389 39.6 62.8549 40.512 63.8789 41.664C64.9029 42.784 65.6869 44.048 66.2309 45.456C66.8069 46.864 67.0949 48.288 67.0949 49.728C67.0949 51.68 66.6629 53.52 65.7989 55.248C64.9349 56.976 63.7349 58.384 62.1989 59.472L69.3989 72H59.1269L53.1269 61.536H49.3349V72H39.9749ZM49.3349 53.376H55.2389C55.8149 53.376 56.3429 53.056 56.8229 52.416C57.3349 51.776 57.5909 50.88 57.5909 49.728C57.5909 48.544 57.3029 47.648 56.7269 47.04C56.1509 46.4 55.5749 46.08 54.9989 46.08H49.3349V53.376ZM87.3036 72.288C84.7116 72.288 82.3596 71.808 80.2476 70.848C78.1356 69.856 76.3116 68.544 74.7756 66.912C73.2716 65.248 72.1036 63.392 71.2716 61.344C70.4716 59.264 70.0716 57.12 70.0716 54.912C70.0716 52.64 70.5036 50.48 71.3676 48.432C72.2316 46.384 73.4316 44.56 74.9676 42.96C76.5356 41.328 78.3756 40.048 80.4876 39.12C82.6316 38.192 84.9676 37.728 87.4956 37.728C90.0876 37.728 92.4396 38.224 94.5516 39.216C96.6636 40.176 98.4716 41.488 99.9756 43.152C101.48 44.816 102.632 46.688 103.432 48.768C104.264 50.816 104.68 52.928 104.68 55.104C104.68 57.344 104.248 59.488 103.384 61.536C102.552 63.584 101.352 65.424 99.7836 67.056C98.2476 68.656 96.4236 69.936 94.3116 70.896C92.1996 71.824 89.8636 72.288 87.3036 72.288ZM79.5756 55.008C79.5756 56.512 79.8476 57.952 80.3916 59.328C80.9676 60.704 81.8316 61.824 82.9836 62.688C84.1676 63.552 85.6396 63.984 87.3996 63.984C89.2236 63.984 90.6956 63.536 91.8156 62.64C92.9676 61.744 93.8156 60.608 94.3596 59.232C94.9036 57.824 95.1756 56.384 95.1756 54.912C95.1756 53.376 94.8876 51.936 94.3116 50.592C93.7356 49.248 92.8716 48.16 91.7196 47.328C90.5676 46.464 89.1116 46.032 87.3516 46.032C85.5596 46.032 84.0876 46.48 82.9356 47.376C81.7836 48.24 80.9356 49.36 80.3916 50.736C79.8476 52.08 79.5756 53.504 79.5756 55.008ZM118.007 55.248V72H108.647V37.92H115.943L129.623 55.248V37.92H138.983V72H131.543L118.007 55.248ZM171.378 46.08H161.586V72H152.226V46.08H142.386V37.92H171.378V46.08ZM37.216 119.84V128H12.928V93.92H36.784V102.08H22.288V106.88H34.672V114.464H22.288V119.84H37.216ZM50.9286 111.248V128H41.5686V93.92H48.8646L62.5446 111.248V93.92H71.9046V128H64.4646L50.9286 111.248ZM77.7561 128V93.92H90.8601C94.6361 93.92 97.7881 94.688 100.316 96.224C102.876 97.728 104.796 99.776 106.076 102.368C107.388 104.928 108.044 107.776 108.044 110.912C108.044 114.368 107.324 117.376 105.884 119.936C104.476 122.496 102.476 124.48 99.8841 125.888C97.3241 127.296 94.3161 128 90.8601 128H77.7561ZM98.5401 110.912C98.5401 108.256 97.8521 106.128 96.4761 104.528C95.1321 102.896 93.2601 102.08 90.8601 102.08H87.1161V119.84H90.8601C93.3241 119.84 95.2121 118.992 96.5241 117.296C97.8681 115.6 98.5401 113.472 98.5401 110.912ZM37.216 175.84V184H12.928V149.92H36.784V158.08H22.288V162.88H34.672V170.464H22.288V175.84H37.216ZM48.2406 149.92L54.4326 160.672L60.6246 149.92H70.7046L60.0006 167.2L70.3206 184H60.2406L54.4326 173.728L48.6246 184H38.4966L48.8166 167.2L38.1126 149.92H48.2406ZM73.1155 184V149.92H87.8035C89.4675 149.92 91.0035 150.256 92.4115 150.928C93.8195 151.6 95.0355 152.512 96.0595 153.664C97.0835 154.784 97.8675 156.048 98.4115 157.456C98.9875 158.864 99.2755 160.288 99.2755 161.728C99.2755 163.744 98.7955 165.648 97.8355 167.44C96.9075 169.232 95.5955 170.704 93.8995 171.856C92.2355 172.976 90.2835 173.536 88.0435 173.536H82.4755V184H73.1155ZM82.4755 165.376H87.4195C87.9955 165.376 88.5235 165.12 89.0035 164.608C89.5155 164.064 89.7715 163.104 89.7715 161.728C89.7715 160.32 89.4835 159.36 88.9075 158.848C88.3315 158.336 87.7555 158.08 87.1795 158.08H82.4755V165.376ZM127.31 175.84V184H103.022V149.92H126.878V158.08H112.382V162.88H124.766V170.464H112.382V175.84H127.31ZM131.662 184V149.92H147.31C148.974 149.92 150.51 150.256 151.918 150.928C153.326 151.6 154.542 152.512 155.566 153.664C156.59 154.784 157.374 156.048 157.918 157.456C158.494 158.864 158.782 160.288 158.782 161.728C158.782 163.68 158.35 165.52 157.486 167.248C156.622 168.976 155.422 170.384 153.886 171.472L161.086 184H150.814L144.814 173.536H141.022V184H131.662ZM141.022 165.376H146.926C147.502 165.376 148.03 165.056 148.51 164.416C149.022 163.776 149.278 162.88 149.278 161.728C149.278 160.544 148.99 159.648 148.414 159.04C147.838 158.4 147.262 158.08 146.686 158.08H141.022V165.376ZM190.128 158.08H180.336V184H170.976V158.08H161.136V149.92H190.128V158.08Z" fill="#0060EC"/>
  <path d="M178.771 53.064L181.471 57.708L181.831 58.464L182.191 57.708L184.891 53.064H191.839L185.755 62.424L192.019 72H185.071L182.155 67.356L181.831 66.636L181.507 67.356L178.591 72H171.643L177.907 62.604L171.823 53.064H178.771ZM116.1 109.064L118.8 113.708L119.16 114.464L119.52 113.708L122.22 109.064H129.168L123.084 118.424L129.348 128H122.4L119.484 123.356L119.16 122.636L118.836 123.356L115.92 128H108.971L115.236 118.604L109.151 109.064H116.1ZM197.521 165.064L200.221 169.708L200.581 170.464L200.941 169.708L203.641 165.064H210.589L204.505 174.424L210.769 184H203.821L200.905 179.356L200.581 178.636L200.257 179.356L197.341 184H190.393L196.657 174.604L190.573 165.064H197.521Z" fill="#090A0B"/>
</svg>
